<svg version="1.1" id="Layer_1" xmlns="http://www.w3.org/2000/svg" xmlns:xlink="http://www.w3.org/1999/xlink" x="0px" y="0px"
	 width="100%" viewBox="0 0 914 298" enable-background="new 0 0 914 298" xml:space="preserve">
<path fill="#FFFFFF" opacity="1.000000" stroke="none" 
	d="
M581.000000,299.000000 
	C387.333344,299.000000 194.166672,299.000000 1.000000,299.000000 
	C1.000000,199.666672 1.000000,100.333336 1.000000,1.000000 
	C305.666656,1.000000 610.333313,1.000000 915.000000,1.000000 
	C915.000000,100.333336 915.000000,199.666672 915.000000,299.000000 
	C803.833313,299.000000 692.666687,299.000000 581.000000,299.000000 
M778.498596,183.914352 
	C779.436279,183.767578 780.373962,183.620789 781.311584,183.473999 
	C781.286743,183.169739 781.261841,182.865479 781.237000,182.561218 
	C780.154846,182.410828 779.072693,182.260437 777.329529,181.718933 
	C776.587891,179.290039 775.250793,176.872208 775.205444,174.430389 
	C774.983398,162.462250 775.184326,150.486923 775.064453,138.515854 
	C775.019775,134.058426 775.385559,130.168671 780.911377,129.229218 
	C774.636047,129.229218 768.360779,129.229218 762.085449,129.229218 
	C767.099365,129.923035 767.970581,133.165848 767.946838,137.329987 
	C767.874817,149.966980 768.065063,162.607773 767.789551,175.239182 
	C767.739136,177.551041 765.980713,179.825653 764.232971,182.050629 
	C759.288757,183.435913 756.802307,182.082642 754.529907,176.308075 
	C748.687622,161.462021 742.965393,146.568756 737.166321,131.705627 
	C736.681030,130.461777 735.978638,129.302628 734.835815,127.025528 
	C732.884094,132.424026 731.374268,136.600067 729.341064,141.263321 
	C727.616516,145.862640 725.891907,150.461975 723.872192,155.716248 
	C719.207336,164.963043 718.390381,176.060043 709.972168,183.482956 
	C715.163696,183.482956 719.907410,183.482956 725.969360,183.482956 
	C717.632507,180.434708 717.063293,179.434677 719.020325,173.130234 
	C719.216675,172.497726 719.475159,171.884583 719.701172,171.261154 
	C722.683960,163.034332 722.683838,163.034286 731.335022,163.034286 
	C741.653198,163.034286 741.653198,163.034286 745.278992,172.791336 
	C747.975891,180.048950 747.975891,180.048950 741.632324,183.714310 
	C749.940674,183.714310 757.579041,183.714310 766.105286,183.845932 
	C770.036133,183.805573 773.966919,183.765198 778.498596,183.914352 
M861.424377,129.896988 
	C868.083435,132.161896 868.916016,138.576447 871.906006,143.844727 
	C871.906006,138.659714 871.906006,133.474716 871.906006,127.636513 
	C870.632507,129.343521 869.802490,130.456009 869.008911,131.519699 
	C866.121704,130.338348 863.552551,129.287170 860.111816,127.995987 
	C846.479553,126.395073 840.470703,135.125977 842.481750,143.322296 
	C843.493835,147.447006 846.731689,151.441620 849.914856,154.506378 
	C853.449890,157.909698 858.220642,159.986984 862.186096,162.994202 
	C871.030884,169.701599 870.240051,178.779526 860.551331,183.659454 
	C866.764526,184.357834 871.310181,181.998138 873.783020,176.790726 
	C876.663635,170.724686 875.491394,163.755539 869.928528,159.162582 
	C864.954895,155.056000 859.318359,151.758255 854.027771,148.027817 
	C848.585632,144.190491 846.813416,139.664551 848.737732,134.879654 
	C850.494568,130.510864 854.228210,128.878510 861.424377,129.896988 
M331.798065,157.684296 
	C327.426758,166.208405 326.709442,176.559753 318.478363,183.409485 
	C323.915558,183.409485 328.871826,183.409485 333.828125,183.409485 
	C327.060394,180.471909 326.178650,178.585464 328.430817,171.385757 
	C331.046021,163.025467 331.045990,163.025436 339.388794,163.025421 
	C348.552094,163.025375 348.684937,162.980011 351.623108,171.581177 
	C353.081573,175.850693 357.600769,181.041946 349.311401,183.751404 
	C358.210022,183.751404 367.108673,183.751404 376.932007,183.895493 
	C382.618835,183.844437 388.305664,183.793381 394.755737,183.921539 
	C395.511627,183.779282 396.267517,183.637024 397.023407,183.494766 
	C397.013702,183.214050 397.003998,182.933350 396.994293,182.652649 
	C395.986572,182.466049 394.978851,182.279449 393.319916,181.610199 
	C392.791809,180.450241 391.831329,179.299332 391.806793,178.128799 
	C391.662292,171.229889 391.735657,164.326416 391.735657,157.197556 
	C398.570404,157.197556 405.111725,157.197556 412.028076,157.197556 
	C412.028076,164.312500 412.190582,171.224564 411.892548,178.116699 
	C411.832123,179.514679 410.033722,180.837494 408.351837,182.127243 
	C407.726471,182.519806 407.101105,182.912369 405.260773,184.067627 
	C408.149536,183.891769 409.550385,183.806488 411.881744,183.869629 
	C417.251984,183.832764 422.622223,183.795898 428.913116,183.945663 
	C434.529938,183.945663 440.146790,183.945663 446.236298,183.945663 
	C443.404724,181.792511 439.506592,180.097717 439.601868,178.669357 
	C439.923218,173.852707 441.148041,168.893021 443.167542,164.513840 
	C443.793396,163.156799 448.046906,163.129822 450.649017,163.088211 
	C460.318420,162.933624 460.393707,163.000565 463.586151,172.060333 
	C465.100159,176.356979 468.899841,181.406021 460.862915,183.534790 
	C468.916534,183.534790 476.970184,183.534790 485.883636,183.922180 
	C493.505371,183.922180 501.127106,183.922180 508.100494,183.922180 
	C506.365326,181.674332 503.703217,179.791702 503.511078,177.683884 
	C502.927826,171.286087 503.299927,164.801208 503.299927,158.403030 
	C511.799591,157.478470 513.396973,158.572464 515.028320,166.239136 
	C515.685974,169.329742 516.211182,172.448502 516.867126,175.539505 
	C518.490784,183.190399 522.291565,185.784698 530.006165,184.982086 
	C535.271790,184.434235 540.578186,184.281631 545.864868,183.929184 
	C546.861633,183.862732 547.851074,183.687210 549.603760,183.466202 
	C541.595093,179.829437 541.059387,178.427719 543.890320,170.203003 
	C544.431030,168.632095 544.712036,166.828232 545.693909,165.594086 
	C546.627747,164.420197 548.441467,162.996460 549.660889,163.166901 
	C554.484314,163.841049 560.397339,160.386215 563.950073,165.013824 
	C566.553650,168.405075 567.443481,173.228790 568.592896,177.548248 
	C568.936768,178.840256 567.580811,180.584610 566.282288,182.062912 
	C565.490784,182.358856 564.699280,182.654816 563.907837,182.950760 
	C563.943115,183.210999 563.978394,183.471252 564.013733,183.731491 
	C565.053406,183.731491 566.093079,183.731491 567.993042,183.866318 
	C573.994263,183.844345 579.995483,183.822372 586.934937,183.844467 
	C595.233826,183.844467 603.532776,183.844467 611.756470,183.844467 
	C609.852112,181.821014 607.137146,180.287720 607.015564,178.570831 
	C606.516541,171.522903 606.807068,164.419067 606.807068,157.296417 
	C613.749573,157.296417 620.313232,157.296417 627.123169,157.296417 
	C627.123169,162.930832 627.057312,168.243668 627.143738,173.554016 
	C627.214539,177.899506 627.620178,182.326248 621.753845,183.468033 
	C629.570862,183.468033 637.387878,183.468033 645.204895,183.468033 
	C639.156921,182.952545 639.824707,178.536789 639.813477,174.663422 
	C639.777771,162.338531 639.925903,150.011505 639.732788,137.689545 
	C639.666809,133.480820 640.426758,130.308594 645.060303,128.999695 
	C637.247864,128.999695 629.435425,128.999695 622.210632,128.999695 
	C623.754150,130.635971 626.624939,132.253296 626.773132,134.090240 
	C627.328979,140.980865 626.995728,147.943207 626.995728,154.870682 
	C619.952332,154.870682 613.389526,154.870682 606.546631,154.870682 
	C606.546631,149.199554 606.618774,143.883682 606.523621,138.570831 
	C606.447998,134.347290 606.438965,130.281509 611.846375,128.999878 
	C604.030090,128.999878 596.213806,128.999878 587.674744,128.999878 
	C593.967163,131.912094 593.983521,131.912079 593.990234,138.514297 
	C594.002563,150.672729 594.018250,162.831284 593.983643,174.989624 
	C593.964661,181.641083 592.750610,182.676041 585.491455,181.590485 
	C584.255615,179.462601 582.725891,177.450851 581.831787,175.187973 
	C576.093933,160.666260 570.565735,146.061203 564.738342,131.576233 
	C564.180298,130.189087 562.100281,128.737793 560.620239,128.616394 
	C559.477844,128.522720 557.646973,130.226288 557.033447,131.552368 
	C555.367737,135.152664 554.186279,138.977020 552.276733,143.193375 
	C550.557739,147.811249 548.838684,152.429123 546.808350,157.691177 
	C546.493347,158.458389 546.174805,159.224197 545.863831,159.993042 
	C543.498596,165.839813 541.352722,171.791580 538.633362,177.468628 
	C537.851318,179.101181 535.516541,180.592773 533.697388,180.872360 
	C532.782410,181.012970 531.102295,178.441971 530.359314,176.825485 
	C529.545654,175.055069 529.319275,172.986588 529.001343,171.021408 
	C527.759094,163.342010 523.989990,158.201599 515.056702,157.746094 
	C518.275330,156.431137 520.997192,155.601257 523.439636,154.261871 
	C528.360962,151.563126 531.032471,147.262833 530.725159,141.597290 
	C530.394165,135.497025 526.591675,131.073349 521.029053,130.418365 
	C509.157135,129.020508 497.140869,128.848633 485.183746,128.174454 
	C485.018311,128.694717 484.852844,129.214966 484.687408,129.735229 
	C490.320221,130.219833 490.928436,133.842880 490.884979,138.191208 
	C490.768555,149.840393 490.662842,161.495834 490.935211,173.139832 
	C491.048859,177.996902 490.259735,181.765594 484.352692,183.127335 
	C482.296875,180.239426 479.599243,177.613403 478.295654,174.418564 
	C472.466766,160.133453 467.094391,145.662537 461.359314,131.337921 
	C460.846252,130.056427 458.914093,128.583954 457.637421,128.580658 
	C456.358276,128.577347 454.557831,130.038879 453.896057,131.326233 
	C452.313995,134.403793 451.267365,137.756607 449.433899,141.403336 
	C448.658752,143.392776 447.883606,145.382233 447.108459,147.371674 
	C447.781372,147.617249 448.454315,147.862839 449.127258,148.108414 
	C449.746094,146.094559 450.364960,144.080704 451.721985,142.106964 
	C454.374847,148.249130 457.027710,154.391296 459.936737,161.126495 
	C454.041473,161.126495 449.454254,161.126495 444.577911,161.126495 
	C445.495392,157.553787 446.342621,154.254456 447.790894,150.877411 
	C447.875732,150.322617 447.960541,149.767822 448.045380,149.213043 
	C447.359406,149.796768 446.673401,150.380508 445.846039,151.672958 
	C442.594696,159.853119 439.399200,168.056107 436.066132,176.202835 
	C434.616852,179.745300 432.549500,182.719284 427.248840,181.904663 
	C426.432251,179.738831 424.949951,177.585464 424.909149,175.405136 
	C424.678986,163.100876 424.877991,150.789246 424.747314,138.482086 
	C424.702423,134.255264 424.733063,130.367218 429.909943,129.096039 
	C422.103271,129.096039 414.296600,129.096039 407.062988,129.096039 
	C408.643097,130.598679 411.605316,132.077133 411.735657,133.773224 
	C412.276672,140.812927 411.962921,147.918304 411.962921,154.842773 
	C404.864655,154.842773 398.304535,154.842773 391.536682,154.842773 
	C391.536682,149.132935 391.605682,143.814804 391.514709,138.499390 
	C391.442749,134.296692 391.533203,130.301025 396.809448,129.017792 
	C389.002411,129.017792 381.195374,129.017792 374.736786,129.017792 
	C376.037231,131.159912 378.709625,133.551254 378.786560,136.023392 
	C379.205597,149.483170 379.103424,162.965073 378.852142,176.433228 
	C378.816101,178.365005 376.998322,180.263535 375.167755,182.121979 
	C369.998108,183.392670 368.499573,179.645630 367.091614,176.041397 
	C361.295441,161.203766 355.653625,146.305130 349.727203,131.520264 
	C349.174591,130.141632 347.070770,128.707657 345.589935,128.596634 
	C344.445526,128.510803 342.631683,130.218170 342.019257,131.545380 
	C340.358948,135.143417 339.179657,138.963409 337.279083,143.184799 
	C335.557007,147.803818 333.834900,152.422852 331.798065,157.684296 
M74.091423,243.404465 
	C79.139328,246.596832 83.981438,250.188797 89.270531,252.912842 
	C112.957748,265.112518 137.977066,268.930115 164.260361,264.173828 
	C201.306778,257.469757 228.745224,237.148315 247.342636,204.825790 
	C260.821045,181.400223 263.759064,155.841614 260.030518,129.486176 
	C255.862015,100.020256 241.585831,75.702690 218.880310,56.973351 
	C193.103607,35.710651 163.088531,26.962248 129.625168,30.954306 
	C103.461082,34.075584 80.706779,44.737865 61.927563,62.993378 
	C32.993641,91.120407 21.533266,125.751099 27.129120,165.562164 
	C31.643364,197.678223 47.541149,223.471985 74.091423,243.404465 
M286.006104,177.293823 
	C284.456909,172.718246 282.907715,168.142685 281.358521,163.567123 
	C281.107819,163.591370 280.857086,163.615631 280.606384,163.639877 
	C280.606384,170.521164 280.606384,177.402435 280.606384,185.053238 
	C281.910706,183.346436 282.741699,182.259003 283.716370,180.983551 
	C291.156555,185.191422 298.894897,186.273010 306.952118,183.881897 
	C318.847321,180.351822 322.190125,167.398895 313.290436,158.735901 
	C310.099121,155.629486 306.179077,153.274231 302.608002,150.554688 
	C299.831665,148.440369 296.884918,146.498795 294.368378,144.107391 
	C291.268768,141.161880 290.747711,137.288620 292.632294,133.557678 
	C294.563934,129.733551 298.268616,129.230667 302.131226,129.876404 
	C307.844849,130.831589 310.306305,135.075836 312.028748,139.967331 
	C312.727600,141.951935 313.277527,143.988983 313.895203,146.002167 
	C314.289032,145.913696 314.682892,145.825226 315.076721,145.736740 
	C315.076721,139.954193 315.076721,134.171646 315.076721,127.737915 
	C313.725494,129.436020 312.857483,130.526871 311.836670,131.809769 
	C304.856598,127.487877 297.649078,126.340210 290.104431,128.933853 
	C280.369873,132.280304 277.246185,143.195663 283.830566,151.161743 
	C285.705383,153.430038 288.216064,155.206573 290.566345,157.040512 
	C294.496674,160.107407 298.809296,162.739502 302.451874,166.105591 
	C306.737915,170.066345 307.224304,175.945358 304.271088,179.644409 
	C301.309418,183.354065 294.839539,184.152832 290.112091,181.223999 
	C288.734253,180.370377 287.655579,179.033920 286.006104,177.293823 
M670.562866,130.904770 
	C671.346436,133.118774 672.762634,135.320084 672.807373,137.548904 
	C673.037720,149.024414 672.942688,160.507111 672.904785,171.987091 
	C672.888977,176.779343 674.241577,182.361328 666.450439,183.231827 
	C676.147034,183.610870 685.358459,183.809326 694.551025,183.480225 
	C697.047974,183.390839 699.671204,182.020401 701.916260,180.695328 
	C706.825745,177.797623 708.712708,173.161621 708.317749,167.583832 
	C707.936707,162.202682 704.944580,158.709442 700.060547,156.746597 
	C698.119995,155.966690 696.108765,155.362534 693.790405,154.561066 
	C694.568420,154.046555 695.073792,153.659668 695.625000,153.355835 
	C702.716248,149.446838 705.454895,144.512527 704.052612,138.141602 
	C702.850647,132.680634 697.896240,129.186600 690.282104,128.878906 
	C684.470032,128.644028 678.641235,128.823273 672.819885,128.819153 
	C670.871948,128.817780 668.923950,128.818939 666.976013,128.818939 
	C666.980286,129.140244 666.984497,129.461548 666.988770,129.782837 
	C667.925659,130.067947 668.862488,130.353058 670.562866,130.904770 
M807.324280,153.218658 
	C814.144043,163.699020 820.963806,174.179367 827.783508,184.659714 
	C828.311768,184.470459 828.840027,184.281204 829.368286,184.091949 
	C829.368286,182.516144 829.368225,180.940323 829.368286,179.364502 
	C829.368835,166.199295 829.360046,153.034088 829.375244,139.868896 
	C829.380615,135.199036 828.928894,130.230698 835.466492,129.076660 
	C830.511841,129.076660 825.557251,129.076660 820.602600,129.076660 
	C826.995789,129.991791 827.614990,134.387222 827.549988,139.472183 
	C827.439148,148.136444 827.539307,156.803268 827.500061,165.468796 
	C827.494873,166.624176 827.193542,167.778214 826.878113,169.996521 
	C818.265320,156.745422 810.320496,144.477600 802.306030,132.255432 
	C801.437927,130.931503 800.262207,128.979965 799.065491,128.852173 
	C795.051208,128.423569 790.962708,128.689392 786.902649,128.689392 
	C792.893372,130.146744 792.995239,134.396439 792.941711,138.997345 
	C792.823547,149.161514 792.980164,159.328751 792.875854,169.493225 
	C792.820007,174.942322 794.821350,181.385300 785.111084,183.432343 
	C791.837891,183.432343 796.702637,183.432343 801.567383,183.432343 
	C795.283752,182.597229 794.692139,178.458740 794.760986,173.454422 
	C794.919067,161.957886 794.799316,150.457626 794.827209,138.958984 
	C794.830078,137.793198 795.071045,136.628006 795.294312,134.633377 
	C799.536438,141.169998 803.245361,146.885101 807.324280,153.218658 
M842.144470,184.151276 
	C843.249023,183.224045 844.353638,182.296814 845.559143,181.284866 
	C848.503906,182.566574 851.540649,183.888306 854.577393,185.210037 
	C852.110596,181.876633 848.800659,179.623093 846.861145,176.514481 
	C844.914429,173.394257 844.333679,169.421753 843.154297,165.822754 
	C842.714050,165.865402 842.273804,165.908051 841.833557,165.950699 
	C841.833557,171.807480 841.833557,177.664246 842.144470,184.151276 
z"/>
<path fill="#AFC1A2" opacity="1.000000" stroke="none" 
	d="
M73.797058,243.198181 
	C47.541149,223.471985 31.643364,197.678223 27.129120,165.562164 
	C21.533266,125.751099 32.993641,91.120407 61.927563,62.993378 
	C80.706779,44.737865 103.461082,34.075584 129.625168,30.954306 
	C163.088531,26.962248 193.103607,35.710651 218.880310,56.973351 
	C241.585831,75.702690 255.862015,100.020256 260.030518,129.486176 
	C263.759064,155.841614 260.821045,181.400223 247.342636,204.825790 
	C228.745224,237.148315 201.306778,257.469757 164.260361,264.173828 
	C137.977066,268.930115 112.957748,265.112518 89.270531,252.912842 
	C83.981438,250.188797 79.139328,246.596832 73.797058,243.198181 
M137.005676,150.657318 
	C145.302139,167.174713 140.993149,185.945923 127.375877,191.747620 
	C126.285751,187.779587 125.204086,183.842331 124.122414,179.905075 
	C123.439842,180.005951 122.757263,180.106842 122.074692,180.207718 
	C122.272911,183.823303 122.197334,187.482117 122.758972,191.040344 
	C123.181953,193.720062 122.646072,195.382095 119.919090,195.668045 
	C114.496628,196.236618 108.995102,197.323746 103.628517,196.900360 
	C90.500366,195.864609 78.359306,184.244293 76.992653,172.250183 
	C75.858948,162.300415 77.774338,153.044495 83.237328,144.571442 
	C84.027023,143.346619 84.563141,141.958298 85.872925,139.327209 
	C83.644981,140.241287 82.805428,140.352112 82.308052,140.823776 
	C67.861465,154.523697 67.857071,180.164291 82.354622,193.842468 
	C93.737366,204.581879 107.772179,205.220078 122.162048,203.643188 
	C125.088928,203.322449 126.657997,203.597427 128.171982,206.195282 
	C131.896622,212.586349 137.416992,217.232162 144.206512,219.948639 
	C163.280548,227.580170 182.367935,227.212830 200.660339,217.820969 
	C212.939178,211.516663 219.857651,200.872101 219.856567,186.776901 
	C219.855530,173.093491 214.097076,162.248688 201.706711,155.724289 
	C197.384689,153.448456 192.579834,152.089554 186.479156,149.723923 
	C188.430099,148.403687 189.918182,147.649048 191.094955,146.558487 
	C197.659851,140.474503 199.328293,132.476456 198.342987,124.186836 
	C196.781662,111.050896 187.762375,101.931458 173.329407,100.416504 
	C159.992615,99.016617 146.448273,99.591553 132.994659,99.332031 
	C132.817581,99.328613 132.631531,99.788910 131.904724,100.763443 
	C133.658752,101.211327 135.054932,101.692398 136.491089,101.911377 
	C140.934753,102.588928 144.540558,105.188721 144.819946,109.356468 
	C145.444580,118.674866 145.015289,128.063919 145.015289,138.082764 
	C141.102249,134.602997 137.884476,131.520676 134.439026,128.718292 
	C123.337036,119.688431 111.921814,111.028084 101.082878,101.696182 
	C94.494278,96.023651 93.560593,87.409706 97.383080,79.253242 
	C100.627853,72.329475 109.298218,67.418747 117.097755,68.087212 
	C127.073349,68.942177 133.534332,74.001869 135.705170,82.622757 
	C135.979660,83.712868 136.398788,84.766548 136.750900,85.837112 
	C137.094177,85.750481 137.437454,85.663841 137.780731,85.577209 
	C137.780731,78.572647 137.780731,71.568085 137.780731,64.144348 
	C129.185699,63.483494 120.764725,62.118076 112.390152,62.359890 
	C99.734375,62.725311 89.564484,71.213318 86.211571,82.783669 
	C82.298882,96.285675 85.590721,106.733406 96.382957,115.182732 
	C103.067543,120.416138 109.933540,125.443886 116.338303,131.001633 
	C123.337227,137.074982 129.898117,143.653137 137.005676,150.657318 
z"/>
<path fill="#485A45" opacity="1.000000" stroke="none" 
	d="
M585.996704,183.800385 
	C579.995483,183.822372 573.994263,183.844345 567.530762,183.396362 
	C567.046875,182.658203 567.025269,182.389969 567.003662,182.121735 
	C567.580811,180.584610 568.936768,178.840256 568.592896,177.548248 
	C567.443481,173.228790 566.553650,168.405075 563.950073,165.013824 
	C560.397339,160.386215 554.484314,163.841049 549.660889,163.166901 
	C548.441467,162.996460 546.627747,164.420197 545.693909,165.594086 
	C544.712036,166.828232 544.431030,168.632095 543.890320,170.203003 
	C541.059387,178.427719 541.595093,179.829437 549.603760,183.466202 
	C547.851074,183.687210 546.861633,183.862732 545.864868,183.929184 
	C540.578186,184.281631 535.271790,184.434235 530.006165,184.982086 
	C522.291565,185.784698 518.490784,183.190399 516.867126,175.539505 
	C516.211182,172.448502 515.685974,169.329742 515.028320,166.239136 
	C513.396973,158.572464 511.799591,157.478470 503.299927,158.403030 
	C503.299927,164.801208 502.927826,171.286087 503.511078,177.683884 
	C503.703217,179.791702 506.365326,181.674332 508.100494,183.922180 
	C501.127106,183.922180 493.505371,183.922180 485.468384,183.667786 
	C485.053131,183.413406 485.069550,183.289597 485.069550,183.289597 
	C490.259735,181.765594 491.048859,177.996902 490.935211,173.139832 
	C490.662842,161.495834 490.768555,149.840393 490.884979,138.191208 
	C490.928436,133.842880 490.320221,130.219833 484.687408,129.735229 
	C484.852844,129.214966 485.018311,128.694717 485.183746,128.174454 
	C497.140869,128.848633 509.157135,129.020508 521.029053,130.418365 
	C526.591675,131.073349 530.394165,135.497025 530.725159,141.597290 
	C531.032471,147.262833 528.360962,151.563126 523.439636,154.261871 
	C520.997192,155.601257 518.275330,156.431137 515.056702,157.746094 
	C523.989990,158.201599 527.759094,163.342010 529.001343,171.021408 
	C529.319275,172.986588 529.545654,175.055069 530.359314,176.825485 
	C531.102295,178.441971 532.782410,181.012970 533.697388,180.872360 
	C535.516541,180.592773 537.851318,179.101181 538.633362,177.468628 
	C541.352722,171.791580 543.498596,165.839813 545.863831,159.993042 
	C546.174805,159.224197 546.493347,158.458389 547.188904,157.505310 
	C547.756409,157.615280 547.943359,157.911148 548.069824,158.657959 
	C548.386169,159.846207 548.740723,161.210251 549.143250,161.224548 
	C553.488647,161.378906 557.841614,161.320862 562.887268,161.320862 
	C560.269897,154.099060 557.993896,147.819031 555.468506,140.851059 
	C554.669983,142.309921 554.219421,143.132980 553.563477,143.788727 
	C553.176331,143.318481 552.994568,143.015518 552.812866,142.712570 
	C554.186279,138.977020 555.367737,135.152664 557.033447,131.552368 
	C557.646973,130.226288 559.477844,128.522720 560.620239,128.616394 
	C562.100281,128.737793 564.180298,130.189087 564.738342,131.576233 
	C570.565735,146.061203 576.093933,160.666260 581.831787,175.187973 
	C582.725891,177.450851 584.255615,179.462601 585.738770,182.126099 
	C585.989685,183.041275 585.993164,183.420822 585.996704,183.800385 
M503.142883,153.178741 
	C503.586945,154.096985 503.819580,155.582397 504.510010,155.839798 
	C508.472900,157.317108 514.271729,155.027420 516.086426,151.191406 
	C518.823914,145.404831 518.757141,139.197342 515.426514,134.015594 
	C513.996460,131.790741 509.621704,130.939651 506.478119,130.658691 
	C505.562439,130.576874 503.528015,134.547180 503.314606,136.784836 
	C502.827271,141.894806 503.148682,147.081879 503.142883,153.178741 
z"/>
<path fill="#4A5B47" opacity="1.000000" stroke="none" 
	d="
M586.465820,183.822418 
	C585.993164,183.420822 585.989685,183.041275 585.978760,182.377136 
	C592.750610,182.676041 593.964661,181.641083 593.983643,174.989624 
	C594.018250,162.831284 594.002563,150.672729 593.990234,138.514297 
	C593.983521,131.912079 593.967163,131.912094 587.674744,128.999878 
	C596.213806,128.999878 604.030090,128.999878 611.846375,128.999878 
	C606.438965,130.281509 606.447998,134.347290 606.523621,138.570831 
	C606.618774,143.883682 606.546631,149.199554 606.546631,154.870682 
	C613.389526,154.870682 619.952332,154.870682 626.995728,154.870682 
	C626.995728,147.943207 627.328979,140.980865 626.773132,134.090240 
	C626.624939,132.253296 623.754150,130.635971 622.210632,128.999695 
	C629.435425,128.999695 637.247864,128.999695 645.060303,128.999695 
	C640.426758,130.308594 639.666809,133.480820 639.732788,137.689545 
	C639.925903,150.011505 639.777771,162.338531 639.813477,174.663422 
	C639.824707,178.536789 639.156921,182.952545 645.204895,183.468033 
	C637.387878,183.468033 629.570862,183.468033 621.753845,183.468033 
	C627.620178,182.326248 627.214539,177.899506 627.143738,173.554016 
	C627.057312,168.243668 627.123169,162.930832 627.123169,157.296417 
	C620.313232,157.296417 613.749573,157.296417 606.807068,157.296417 
	C606.807068,164.419067 606.516541,171.522903 607.015564,178.570831 
	C607.137146,180.287720 609.852112,181.821014 611.756470,183.844467 
	C603.532776,183.844467 595.233826,183.844467 586.465820,183.822418 
z"/>
<path fill="#485A45" opacity="1.000000" stroke="none" 
	d="
M393.992493,183.742310 
	C388.305664,183.793381 382.618835,183.844437 376.470490,183.561127 
	C376.007690,182.876999 376.006409,182.527222 376.005127,182.177460 
	C376.998322,180.263535 378.816101,178.365005 378.852142,176.433228 
	C379.103424,162.965073 379.205597,149.483170 378.786560,136.023392 
	C378.709625,133.551254 376.037231,131.159912 374.736786,129.017792 
	C381.195374,129.017792 389.002411,129.017792 396.809448,129.017792 
	C391.533203,130.301025 391.442749,134.296692 391.514709,138.499390 
	C391.605682,143.814804 391.536682,149.132935 391.536682,154.842773 
	C398.304535,154.842773 404.864655,154.842773 411.962921,154.842773 
	C411.962921,147.918304 412.276672,140.812927 411.735657,133.773224 
	C411.605316,132.077133 408.643097,130.598679 407.062988,129.096039 
	C414.296600,129.096039 422.103271,129.096039 429.909943,129.096039 
	C424.733063,130.367218 424.702423,134.255264 424.747314,138.482086 
	C424.877991,150.789246 424.678986,163.100876 424.909149,175.405136 
	C424.949951,177.585464 426.432251,179.738831 427.619629,182.316055 
	C427.991089,183.071304 427.991791,183.415176 427.992462,183.759033 
	C422.622223,183.795898 417.251984,183.832764 411.253662,183.606323 
	C410.095917,182.960342 409.566223,182.577652 409.036560,182.194977 
	C410.033722,180.837494 411.832123,179.514679 411.892548,178.116699 
	C412.190582,171.224564 412.028076,164.312500 412.028076,157.197556 
	C405.111725,157.197556 398.570404,157.197556 391.735657,157.197556 
	C391.735657,164.326416 391.662292,171.229889 391.806793,178.128799 
	C391.831329,179.299332 392.791809,180.450241 393.652588,182.126373 
	C393.987701,183.009140 393.990112,183.375732 393.992493,183.742310 
z"/>
<path fill="#4A5B47" opacity="1.000000" stroke="none" 
	d="
M286.222931,177.606293 
	C287.655579,179.033920 288.734253,180.370377 290.112091,181.223999 
	C294.839539,184.152832 301.309418,183.354065 304.271088,179.644409 
	C307.224304,175.945358 306.737915,170.066345 302.451874,166.105591 
	C298.809296,162.739502 294.496674,160.107407 290.566345,157.040512 
	C288.216064,155.206573 285.705383,153.430038 283.830566,151.161743 
	C277.246185,143.195663 280.369873,132.280304 290.104431,128.933853 
	C297.649078,126.340210 304.856598,127.487877 311.836670,131.809769 
	C312.857483,130.526871 313.725494,129.436020 315.076721,127.737915 
	C315.076721,134.171646 315.076721,139.954193 315.076721,145.736740 
	C314.682892,145.825226 314.289032,145.913696 313.895203,146.002167 
	C313.277527,143.988983 312.727600,141.951935 312.028748,139.967331 
	C310.306305,135.075836 307.844849,130.831589 302.131226,129.876404 
	C298.268616,129.230667 294.563934,129.733551 292.632294,133.557678 
	C290.747711,137.288620 291.268768,141.161880 294.368378,144.107391 
	C296.884918,146.498795 299.831665,148.440369 302.608002,150.554688 
	C306.179077,153.274231 310.099121,155.629486 313.290436,158.735901 
	C322.190125,167.398895 318.847321,180.351822 306.952118,183.881897 
	C298.894897,186.273010 291.156555,185.191422 283.716370,180.983551 
	C282.741699,182.259003 281.910706,183.346436 280.606384,185.053238 
	C280.606384,177.402435 280.606384,170.521164 280.606384,163.639877 
	C280.857086,163.615631 281.107819,163.591370 281.358521,163.567123 
	C282.907715,168.142685 284.456909,172.718246 286.222931,177.606293 
z"/>
<path fill="#4C5D49" opacity="1.000000" stroke="none" 
	d="
M428.452789,183.852356 
	C427.991791,183.415176 427.991089,183.071304 427.991760,182.469543 
	C432.549500,182.719284 434.616852,179.745300 436.066132,176.202835 
	C439.399200,168.056107 442.594696,159.853119 446.216980,151.269867 
	C446.788605,150.896210 446.989227,150.925659 447.189880,150.955124 
	C446.342621,154.254456 445.495392,157.553787 444.577911,161.126495 
	C449.454254,161.126495 454.041473,161.126495 459.936737,161.126495 
	C457.027710,154.391296 454.374847,148.249130 451.294861,141.828339 
	C450.579987,141.365906 450.292297,141.182098 450.004578,140.998291 
	C451.267365,137.756607 452.313995,134.403793 453.896057,131.326233 
	C454.557831,130.038879 456.358276,128.577347 457.637421,128.580658 
	C458.914093,128.583954 460.846252,130.056427 461.359314,131.337921 
	C467.094391,145.662537 472.466766,160.133453 478.295654,174.418564 
	C479.599243,177.613403 482.296875,180.239426 484.711121,183.208466 
	C485.069550,183.289597 485.053131,183.413406 485.038452,183.474091 
	C476.970184,183.534790 468.916534,183.534790 460.862915,183.534790 
	C468.899841,181.406021 465.100159,176.356979 463.586151,172.060333 
	C460.393707,163.000565 460.318420,162.933624 450.649017,163.088211 
	C448.046906,163.129822 443.793396,163.156799 443.167542,164.513840 
	C441.148041,168.893021 439.923218,173.852707 439.601868,178.669357 
	C439.506592,180.097717 443.404724,181.792511 446.236298,183.945663 
	C440.146790,183.945663 434.529938,183.945663 428.452789,183.852356 
z"/>
<path fill="#4C5D49" opacity="1.000000" stroke="none" 
	d="
M375.586426,182.149719 
	C376.006409,182.527222 376.007690,182.876999 376.008118,183.489075 
	C367.108673,183.751404 358.210022,183.751404 349.311401,183.751404 
	C357.600769,181.041946 353.081573,175.850693 351.623108,171.581177 
	C348.684937,162.980011 348.552094,163.025375 339.388794,163.025421 
	C331.045990,163.025436 331.046021,163.025467 328.430817,171.385757 
	C326.178650,178.585464 327.060394,180.471909 333.828125,183.409485 
	C328.871826,183.409485 323.915558,183.409485 318.478363,183.409485 
	C326.709442,176.559753 327.426758,166.208405 332.184265,157.500946 
	C332.758698,157.618774 332.946991,157.919968 333.077271,158.669342 
	C333.403473,159.846695 333.765656,161.195114 334.175293,161.209686 
	C338.503662,161.363632 342.839539,161.305023 347.871552,161.305023 
	C345.255524,154.090622 342.984650,147.828094 340.467621,140.886749 
	C339.676392,142.324402 339.225891,143.143005 338.565247,143.792938 
	C338.173340,143.314621 337.991486,143.005005 337.809631,142.695389 
	C339.179657,138.963409 340.358948,135.143417 342.019257,131.545380 
	C342.631683,130.218170 344.445526,128.510803 345.589935,128.596634 
	C347.070770,128.707657 349.174591,130.141632 349.727203,131.520264 
	C355.653625,146.305130 361.295441,161.203766 367.091614,176.041397 
	C368.499573,179.645630 369.998108,183.392670 375.586426,182.149719 
z"/>
<path fill="#495B46" opacity="1.000000" stroke="none" 
	d="
M670.181152,130.771454 
	C668.862488,130.353058 667.925659,130.067947 666.988770,129.782837 
	C666.984497,129.461548 666.980286,129.140244 666.976013,128.818939 
	C668.923950,128.818939 670.871948,128.817780 672.819885,128.819153 
	C678.641235,128.823273 684.470032,128.644028 690.282104,128.878906 
	C697.896240,129.186600 702.850647,132.680634 704.052612,138.141602 
	C705.454895,144.512527 702.716248,149.446838 695.625000,153.355835 
	C695.073792,153.659668 694.568420,154.046555 693.790405,154.561066 
	C696.108765,155.362534 698.119995,155.966690 700.060547,156.746597 
	C704.944580,158.709442 707.936707,162.202682 708.317749,167.583832 
	C708.712708,173.161621 706.825745,177.797623 701.916260,180.695328 
	C699.671204,182.020401 697.047974,183.390839 694.551025,183.480225 
	C685.358459,183.809326 676.147034,183.610870 666.450439,183.231827 
	C674.241577,182.361328 672.888977,176.779343 672.904785,171.987091 
	C672.942688,160.507111 673.037720,149.024414 672.807373,137.548904 
	C672.762634,135.320084 671.346436,133.118774 670.181152,130.771454 
M700.126465,164.577972 
	C697.455994,156.863144 691.806396,154.536880 680.180969,156.566498 
	C680.180969,163.439697 680.112488,170.380066 680.211853,177.318039 
	C680.256714,180.453781 681.864868,181.984772 685.231018,182.131622 
	C696.322388,182.615524 701.747131,176.678864 700.126465,164.577972 
M680.148987,136.017929 
	C680.148987,142.090958 680.148987,148.163986 680.148987,154.694122 
	C685.913879,154.373245 691.514832,155.489365 694.755432,150.250259 
	C697.824463,145.288422 697.761047,139.798523 695.087280,134.528793 
	C693.025757,130.465836 689.168884,130.121765 685.247986,130.160736 
	C682.026794,130.192764 680.431335,131.998093 680.148987,136.017929 
z"/>
<path fill="#4D5E4A" opacity="1.000000" stroke="none" 
	d="
M807.139282,152.909439 
	C803.245361,146.885101 799.536438,141.169998 795.294312,134.633377 
	C795.071045,136.628006 794.830078,137.793198 794.827209,138.958984 
	C794.799316,150.457626 794.919067,161.957886 794.760986,173.454422 
	C794.692139,178.458740 795.283752,182.597229 801.567383,183.432343 
	C796.702637,183.432343 791.837891,183.432343 785.111084,183.432343 
	C794.821350,181.385300 792.820007,174.942322 792.875854,169.493225 
	C792.980164,159.328751 792.823547,149.161514 792.941711,138.997345 
	C792.995239,134.396439 792.893372,130.146744 786.902649,128.689392 
	C790.962708,128.689392 795.051208,128.423569 799.065491,128.852173 
	C800.262207,128.979965 801.437927,130.931503 802.306030,132.255432 
	C810.320496,144.477600 818.265320,156.745422 826.878113,169.996521 
	C827.193542,167.778214 827.494873,166.624176 827.500061,165.468796 
	C827.539307,156.803268 827.439148,148.136444 827.549988,139.472183 
	C827.614990,134.387222 826.995789,129.991791 820.602600,129.076660 
	C825.557251,129.076660 830.511841,129.076660 835.466492,129.076660 
	C828.928894,130.230698 829.380615,135.199036 829.375244,139.868896 
	C829.360046,153.034088 829.368835,166.199295 829.368286,179.364502 
	C829.368225,180.940323 829.368286,182.516144 829.368286,184.091949 
	C828.840027,184.281204 828.311768,184.470459 827.783508,184.659714 
	C820.963806,174.179367 814.144043,163.699020 807.139282,152.909439 
z"/>
<path fill="#4F604C" opacity="1.000000" stroke="none" 
	d="
M765.217346,183.714310 
	C757.579041,183.714310 749.940674,183.714310 741.632324,183.714310 
	C747.975891,180.048950 747.975891,180.048950 745.278992,172.791336 
	C741.653198,163.034286 741.653198,163.034286 731.335022,163.034286 
	C722.683838,163.034286 722.683960,163.034332 719.701172,171.261154 
	C719.475159,171.884583 719.216675,172.497726 719.020325,173.130234 
	C717.063293,179.434677 717.632507,180.434708 725.969360,183.482956 
	C719.907410,183.482956 715.163696,183.482956 709.972168,183.482956 
	C718.390381,176.060043 719.207336,164.963043 724.240723,155.534180 
	C724.791870,155.652603 724.974548,155.953110 725.103333,156.646500 
	C724.717896,158.339905 724.386353,159.640411 724.030090,161.038040 
	C729.826416,161.038040 735.019409,161.038040 740.892639,161.038040 
	C738.066284,153.461685 735.426147,146.384537 732.520630,138.596024 
	C731.680786,140.252228 731.245728,141.110153 730.601929,141.815582 
	C730.216919,141.367416 730.040710,141.071762 729.864502,140.776108 
	C731.374268,136.600067 732.884094,132.424026 734.835815,127.025528 
	C735.978638,129.302628 736.681030,130.461777 737.166321,131.705627 
	C742.965393,146.568756 748.687622,161.462021 754.529907,176.308075 
	C756.802307,182.082642 759.288757,183.435913 764.667419,182.484039 
	C765.140381,183.183075 765.178833,183.448700 765.217346,183.714310 
z"/>
<path fill="#4A5B47" opacity="1.000000" stroke="none" 
	d="
M860.875671,129.572861 
	C854.228210,128.878510 850.494568,130.510864 848.737732,134.879654 
	C846.813416,139.664551 848.585632,144.190491 854.027771,148.027817 
	C859.318359,151.758255 864.954895,155.056000 869.928528,159.162582 
	C875.491394,163.755539 876.663635,170.724686 873.783020,176.790726 
	C871.310181,181.998138 866.764526,184.357834 860.551331,183.659454 
	C870.240051,178.779526 871.030884,169.701599 862.186096,162.994202 
	C858.220642,159.986984 853.449890,157.909698 849.914856,154.506378 
	C846.731689,151.441620 843.493835,147.447006 842.481750,143.322296 
	C840.470703,135.125977 846.479553,126.395073 860.516846,128.449890 
	C860.906433,129.126816 860.891052,129.349838 860.875671,129.572861 
z"/>
<path fill="#465843" opacity="1.000000" stroke="none" 
	d="
M765.661316,183.780121 
	C765.178833,183.448700 765.140381,183.183075 765.056274,182.517456 
	C765.980713,179.825653 767.739136,177.551041 767.789551,175.239182 
	C768.065063,162.607773 767.874817,149.966980 767.946838,137.329987 
	C767.970581,133.165848 767.099365,129.923035 762.085449,129.229218 
	C768.360779,129.229218 774.636047,129.229218 780.911377,129.229218 
	C775.385559,130.168671 775.019775,134.058426 775.064453,138.515854 
	C775.184326,150.486923 774.983398,162.462250 775.205444,174.430389 
	C775.250793,176.872208 776.587891,179.290039 777.634277,182.318054 
	C777.925354,183.186386 777.911560,183.455612 777.897766,183.724838 
	C773.966919,183.765198 770.036133,183.805573 765.661316,183.780121 
z"/>
<path fill="#4F604C" opacity="1.000000" stroke="none" 
	d="
M841.989014,183.836151 
	C841.833557,177.664246 841.833557,171.807480 841.833557,165.950699 
	C842.273804,165.908051 842.714050,165.865402 843.154297,165.822754 
	C844.333679,169.421753 844.914429,173.394257 846.861145,176.514481 
	C848.800659,179.623093 852.110596,181.876633 854.577393,185.210037 
	C851.540649,183.888306 848.503906,182.566574 845.559143,181.284866 
	C844.353638,182.296814 843.249023,183.224045 841.989014,183.836151 
z"/>
<path fill="#51624F" opacity="1.000000" stroke="none" 
	d="
M861.150024,129.734924 
	C860.891052,129.349838 860.906433,129.126816 860.952637,128.569885 
	C863.552551,129.287170 866.121704,130.338348 869.008911,131.519699 
	C869.802490,130.456009 870.632507,129.343521 871.906006,127.636513 
	C871.906006,133.474716 871.906006,138.659714 871.906006,143.844727 
	C868.916016,138.576447 868.083435,132.161896 861.150024,129.734924 
z"/>
<path fill="#667463" opacity="1.000000" stroke="none" 
	d="
M552.544800,142.952972 
	C552.994568,143.015518 553.176331,143.318481 553.519531,144.147842 
	C551.830811,149.185165 549.980530,153.696091 548.130310,158.207001 
	C547.943359,157.911148 547.756409,157.615280 547.344543,157.183228 
	C548.838684,152.429123 550.557739,147.811249 552.544800,142.952972 
z"/>
<path fill="#667463" opacity="1.000000" stroke="none" 
	d="
M333.135254,158.221146 
	C332.946991,157.919968 332.758698,157.618774 332.341614,157.179733 
	C333.834900,152.422852 335.557007,147.803818 337.544373,142.940094 
	C337.991486,143.005005 338.173340,143.314621 338.517944,144.151337 
	C336.832245,149.192673 334.983765,153.706909 333.135254,158.221146 
z"/>
<path fill="#677665" opacity="1.000000" stroke="none" 
	d="
M729.602783,141.019714 
	C730.040710,141.071762 730.216919,141.367416 730.568604,142.177917 
	C728.881836,147.213043 727.019531,151.733337 725.157227,156.253616 
	C724.974548,155.953110 724.791870,155.652603 724.388306,155.206696 
	C725.891907,150.461975 727.616516,145.862640 729.602783,141.019714 
z"/>
<path fill="#F8F9F8" opacity="1.000000" stroke="none" 
	d="
M449.719238,141.200806 
	C450.292297,141.182098 450.579987,141.365906 450.925751,141.808289 
	C450.364960,144.080704 449.746094,146.094559 449.127258,148.108414 
	C448.454315,147.862839 447.781372,147.617249 447.108459,147.371674 
	C447.883606,145.382233 448.658752,143.392776 449.719238,141.200806 
z"/>
<path fill="#4C5D49" opacity="1.000000" stroke="none" 
	d="
M408.694214,182.161102 
	C409.566223,182.577652 410.095917,182.960342 410.788452,183.532120 
	C409.550385,183.806488 408.149536,183.891769 405.260773,184.067627 
	C407.101105,182.912369 407.726471,182.519806 408.694214,182.161102 
z"/>
<path fill="#4F604C" opacity="1.000000" stroke="none" 
	d="
M778.198181,183.819595 
	C777.911560,183.455612 777.925354,183.186386 777.964844,182.513611 
	C779.072693,182.260437 780.154846,182.410828 781.237000,182.561218 
	C781.261841,182.865479 781.286743,183.169739 781.311584,183.473999 
	C780.373962,183.620789 779.436279,183.767578 778.198181,183.819595 
z"/>
<path fill="#F8F9F8" opacity="1.000000" stroke="none" 
	d="
M447.490387,150.916260 
	C446.989227,150.925659 446.788605,150.896210 446.287689,150.915497 
	C446.673401,150.380508 447.359406,149.796768 448.045349,149.213043 
	C447.960541,149.767822 447.875732,150.322617 447.490387,150.916260 
z"/>
<path fill="#4C5D49" opacity="1.000000" stroke="none" 
	d="
M394.374115,183.831924 
	C393.990112,183.375732 393.987701,183.009140 393.978210,182.367706 
	C394.978851,182.279449 395.986572,182.466049 396.994293,182.652649 
	C397.003998,182.933350 397.013702,183.214050 397.023407,183.494766 
	C396.267517,183.637024 395.511627,183.779282 394.374115,183.831924 
z"/>
<path fill="#4A5B47" opacity="1.000000" stroke="none" 
	d="
M566.642944,182.092316 
	C567.025269,182.389969 567.046875,182.658203 567.100647,183.328949 
	C566.093079,183.731491 565.053406,183.731491 564.013733,183.731491 
	C563.978394,183.471252 563.943115,183.210999 563.907837,182.950760 
	C564.699280,182.654816 565.490784,182.358856 566.642944,182.092316 
z"/>
<path fill="#465843" opacity="1.000000" stroke="none" 
	d="
M136.827805,150.334290 
	C129.898117,143.653137 123.337227,137.074982 116.338303,131.001633 
	C109.933540,125.443886 103.067543,120.416138 96.382957,115.182732 
	C85.590721,106.733406 82.298882,96.285675 86.211571,82.783669 
	C89.564484,71.213318 99.734375,62.725311 112.390152,62.359890 
	C120.764725,62.118076 129.185699,63.483494 137.780731,64.144348 
	C137.780731,71.568085 137.780731,78.572647 137.780731,85.577209 
	C137.437454,85.663841 137.094177,85.750481 136.750900,85.837112 
	C136.398788,84.766548 135.979660,83.712868 135.705170,82.622757 
	C133.534332,74.001869 127.073349,68.942177 117.097755,68.087212 
	C109.298218,67.418747 100.627853,72.329475 97.383080,79.253242 
	C93.560593,87.409706 94.494278,96.023651 101.082878,101.696182 
	C111.921814,111.028084 123.337036,119.688431 134.439026,128.718292 
	C137.884476,131.520676 141.102249,134.602997 145.015289,138.082764 
	C145.015289,128.063919 145.444580,118.674866 144.819946,109.356468 
	C144.540558,105.188721 140.934753,102.588928 136.491089,101.911377 
	C135.054932,101.692398 133.658752,101.211327 131.904724,100.763443 
	C132.631531,99.788910 132.817581,99.328613 132.994659,99.332031 
	C146.448273,99.591553 159.992615,99.016617 173.329407,100.416504 
	C187.762375,101.931458 196.781662,111.050896 198.342987,124.186836 
	C199.328293,132.476456 197.659851,140.474503 191.094955,146.558487 
	C189.918182,147.649048 188.430099,148.403687 186.479156,149.723923 
	C192.579834,152.089554 197.384689,153.448456 201.706711,155.724289 
	C214.097076,162.248688 219.855530,173.093491 219.856567,186.776901 
	C219.857651,200.872101 212.939178,211.516663 200.660339,217.820969 
	C182.367935,227.212830 163.280548,227.580170 144.206512,219.948639 
	C137.416992,217.232162 131.896622,212.586349 128.171982,206.195282 
	C126.657997,203.597427 125.088928,203.322449 122.162048,203.643188 
	C107.772179,205.220078 93.737366,204.581879 82.354622,193.842468 
	C67.857071,180.164291 67.861465,154.523697 82.308052,140.823776 
	C82.805428,140.352112 83.644981,140.241287 85.872925,139.327209 
	C84.563141,141.958298 84.027023,143.346619 83.237328,144.571442 
	C77.774338,153.044495 75.858948,162.300415 76.992653,172.250183 
	C78.359306,184.244293 90.500366,195.864609 103.628517,196.900360 
	C108.995102,197.323746 114.496628,196.236618 119.919090,195.668045 
	C122.646072,195.382095 123.181953,193.720062 122.758972,191.040344 
	C122.197334,187.482117 122.272911,183.823303 122.074692,180.207718 
	C122.757263,180.106842 123.439842,180.005951 124.122414,179.905075 
	C125.204086,183.842331 126.285751,187.779587 127.375877,191.747620 
	C140.993149,185.945923 145.302139,167.174713 136.827805,150.334290 
M157.904694,181.500000 
	C157.904694,193.126602 157.904694,204.753189 157.904694,217.077789 
	C165.147232,217.077789 171.943314,217.636932 178.614853,216.963165 
	C193.191742,215.491058 203.862152,204.797165 205.803253,190.557236 
	C207.853699,175.514954 200.705933,163.247360 186.262177,157.860046 
	C181.959442,156.255188 177.256210,155.664032 172.695847,154.830795 
	C169.581635,154.261780 166.396957,154.078552 163.243774,153.722839 
	C163.179474,153.293686 163.115173,152.864532 163.050873,152.435394 
	C170.370163,150.967789 177.477661,149.073853 181.422989,142.092346 
	C185.237976,135.341507 185.290085,128.003510 183.744446,120.737236 
	C181.543747,110.391335 172.404678,105.123665 157.904556,105.648308 
	C157.904556,130.583115 157.904556,155.541550 157.904694,181.500000 
M145.814941,206.323975 
	C145.814941,201.624817 145.814941,196.925674 145.814941,191.477875 
	C140.568924,195.203232 136.238556,198.278366 131.023560,201.981689 
	C135.798309,206.109848 140.108658,209.836456 144.418991,213.563080 
	C144.884186,213.224991 145.349396,212.886902 145.814606,212.548798 
	C145.814606,210.783997 145.814606,209.019196 145.814941,206.323975 
z"/>
<path fill="#F8F9F8" opacity="1.000000" stroke="none" 
	d="
M503.142212,152.708191 
	C503.148682,147.081879 502.827271,141.894806 503.314606,136.784836 
	C503.528015,134.547180 505.562439,130.576874 506.478119,130.658691 
	C509.621704,130.939651 513.996460,131.790741 515.426514,134.015594 
	C518.757141,139.197342 518.823914,145.404831 516.086426,151.191406 
	C514.271729,155.027420 508.472900,157.317108 504.510010,155.839798 
	C503.819580,155.582397 503.586945,154.096985 503.142212,152.708191 
z"/>
<path fill="#F9F9F8" opacity="1.000000" stroke="none" 
	d="
M548.069824,158.657944 
	C549.980530,153.696091 551.830811,149.185165 553.724976,144.315155 
	C554.219421,143.132980 554.669983,142.309921 555.468506,140.851059 
	C557.993896,147.819031 560.269897,154.099060 562.887268,161.320862 
	C557.841614,161.320862 553.488647,161.378906 549.143250,161.224548 
	C548.740723,161.210251 548.386169,159.846207 548.069824,158.657944 
z"/>
<path fill="#F9F9F8" opacity="1.000000" stroke="none" 
	d="
M333.077271,158.669342 
	C334.983765,153.706909 336.832245,149.192673 338.728058,144.320038 
	C339.225891,143.143005 339.676392,142.324402 340.467621,140.886749 
	C342.984650,147.828094 345.255524,154.090622 347.871552,161.305023 
	C342.839539,161.305023 338.503662,161.363632 334.175293,161.209686 
	C333.765656,161.195114 333.403473,159.846695 333.077271,158.669342 
z"/>
<path fill="#FBFBFB" opacity="1.000000" stroke="none" 
	d="
M700.209351,164.963074 
	C701.747131,176.678864 696.322388,182.615524 685.231018,182.131622 
	C681.864868,181.984772 680.256714,180.453781 680.211853,177.318039 
	C680.112488,170.380066 680.180969,163.439697 680.180969,156.566498 
	C691.806396,154.536880 697.455994,156.863144 700.209351,164.963074 
z"/>
<path fill="#F8F9F8" opacity="1.000000" stroke="none" 
	d="
M680.181641,135.576462 
	C680.431335,131.998093 682.026794,130.192764 685.247986,130.160736 
	C689.168884,130.121765 693.025757,130.465836 695.087280,134.528793 
	C697.761047,139.798523 697.824463,145.288422 694.755432,150.250259 
	C691.514832,155.489365 685.913879,154.373245 680.148987,154.694122 
	C680.148987,148.163986 680.148987,142.090958 680.181641,135.576462 
z"/>
<path fill="#FAFBFA" opacity="1.000000" stroke="none" 
	d="
M725.103333,156.646500 
	C727.019531,151.733337 728.881836,147.213043 730.777344,142.330414 
	C731.245728,141.110153 731.680786,140.252228 732.520630,138.596024 
	C735.426147,146.384537 738.066284,153.461685 740.892639,161.038040 
	C735.019409,161.038040 729.826416,161.038040 724.030090,161.038040 
	C724.386353,159.640411 724.717896,158.339905 725.103333,156.646500 
z"/>
<path fill="#AEC0A1" opacity="1.000000" stroke="none" 
	d="
M157.904633,181.000000 
	C157.904556,155.541550 157.904556,130.583115 157.904556,105.648308 
	C172.404678,105.123665 181.543747,110.391335 183.744446,120.737236 
	C185.290085,128.003510 185.237976,135.341507 181.422989,142.092346 
	C177.477661,149.073853 170.370163,150.967789 163.050873,152.435394 
	C163.115173,152.864532 163.179474,153.293686 163.243774,153.722839 
	C166.396957,154.078552 169.581635,154.261780 172.695847,154.830795 
	C177.256210,155.664032 181.959442,156.255188 186.262177,157.860046 
	C200.705933,163.247360 207.853699,175.514954 205.803253,190.557236 
	C203.862152,204.797165 193.191742,215.491058 178.614853,216.963165 
	C171.943314,217.636932 165.147232,217.077789 157.904694,217.077789 
	C157.904694,204.753189 157.904694,193.126602 157.904633,181.000000 
z"/>
<path fill="#A6B89A" opacity="1.000000" stroke="none" 
	d="
M145.814774,206.789185 
	C145.814606,209.019196 145.814606,210.783997 145.814606,212.548798 
	C145.349396,212.886902 144.884186,213.224991 144.418991,213.563080 
	C140.108658,209.836456 135.798309,206.109848 131.023560,201.981689 
	C136.238556,198.278366 140.568924,195.203232 145.814941,191.477875 
	C145.814941,196.925674 145.814941,201.624817 145.814774,206.789185 
z"/>
</svg>